<?xml version="1.0" encoding="UTF-8"?>
<svg version="1.1" xmlns="http://www.w3.org/2000/svg" width="1440" height="1440">
<path d="M0 0 C475.2 0 950.4 0 1440 0 C1440 475.2 1440 950.4 1440 1440 C964.8 1440 489.6 1440 0 1440 C0 964.8 0 489.6 0 0 Z " fill="#FEFEFE" transform="translate(0,0)"/>
<path d="M0 0 C-0.55766586 7.34327158 -1.82744735 14.37069638 -3.375 21.5625 C-13.00448687 69.03032888 -12.67791032 120.6883842 3.0625 166.9375 C3.35431152 167.79827148 3.64612305 168.65904297 3.94677734 169.54589844 C13.1723903 196.06776787 25.02177735 222.50277101 42 245 C42.44553223 245.598125 42.89106445 246.19625 43.35009766 246.8125 C49.22513109 254.65997179 55.5567209 261.96581529 62.28125 269.09375 C64.50774656 271.47379805 66.64573118 273.88813685 68.75 276.375 C71.5553265 279.61295517 74.58890507 282.40107064 77.85546875 285.16796875 C80.16538229 287.14128287 82.39088162 289.19139337 84.625 291.25 C90.27327953 296.34469623 96.22592727 301.00263183 102.24609375 305.64453125 C103.89928351 306.92216343 105.54447136 308.20934159 107.1875 309.5 C115.91340382 316.30620498 124.91203512 322.68814597 134 329 C134.72928711 329.50901855 135.45857422 330.01803711 136.20996094 330.54248047 C154.02962147 342.96450076 172.2731652 354.82497189 191.00732422 365.82470703 C193.29386026 367.17332067 195.5707175 368.53759064 197.84765625 369.90234375 C217.74981304 381.79704231 238.06403802 392.92795095 258.50415039 403.86645508 C266.58569579 408.20362672 274.56657353 412.70020121 282.53051758 417.2487793 C289.08784646 420.97310668 295.72921509 424.49370818 302.4375 427.9375 C312.66605556 433.19622418 322.58403021 438.90878874 332.484375 444.7578125 C337.01363155 447.43306867 341.58331454 450.01923565 346.1875 452.5625 C369.70765939 465.67846198 392.54354891 480.67711654 414.05761719 496.87817383 C419.09551277 500.65659552 424.24558752 504.21141762 429.48730469 507.70117188 C438.54844409 513.73784574 446.8129965 519.90012819 454.53759766 527.5703125 C456.52735586 529.51555858 458.58976509 531.3744772 460.65356445 533.24047852 C466.55044156 538.58545337 472.23768953 544.13286646 477.875 549.75 C478.57657227 550.44697998 479.27814453 551.14395996 480.00097656 551.86206055 C483.94787773 555.82069168 487.71025515 559.88278525 491.36083984 564.11572266 C493.79537272 566.91431139 496.33773858 569.60742577 498.875 572.3125 C503.3765928 577.15209875 507.6589614 582.11202383 511.796875 587.26953125 C514.11063876 590.13712144 516.49011411 592.94138438 518.875 595.75 C547.18946071 629.77125124 565.03147669 671.53870722 573 715 C573.18183838 715.91015869 573.36367676 716.82031738 573.55102539 717.75805664 C575.43934211 728.22855779 575.43593472 738.70727387 575.4375 749.3125 C575.44109528 750.77342072 575.44109528 750.77342072 575.44476318 752.26385498 C575.44505734 766.56838612 574.5567121 779.83330415 570.62207031 793.66503906 C569.96387082 796.13561204 569.48467205 798.60283848 569.0234375 801.1171875 C568.14535277 805.65462079 566.74472014 809.73260644 565 814 C564.41129922 815.53068882 563.82413084 817.06196766 563.23828125 818.59375 C559.03325934 829.37075783 554.46651354 839.80269368 549 850 C548.68595215 850.58942383 548.3719043 851.17884766 548.04833984 851.78613281 C539.91468291 866.90774255 529.85311684 880.73253264 519 894 C518.55640137 894.5480127 518.11280273 895.09602539 517.65576172 895.66064453 C510.49811944 904.45787722 502.6814798 912.49014274 494.5859375 920.4284668 C489.7036077 925.20800117 489.7036077 925.20800117 485.24609375 930.375 C482.96991551 933.03515961 481.02579241 934.31051969 478 936 C476.42588429 937.33772973 474.88535212 938.71567478 473.375 940.125 C459.70036101 952.64981949 459.70036101 952.64981949 455 955 C454.83441631 949.60078888 455.24591202 945.29788316 456.75 940.0625 C458.70371546 932.8417866 460.01412927 925.57241571 461.1875 918.1875 C461.35411133 917.15052979 461.52072266 916.11355957 461.69238281 915.04516602 C463.28186831 904.80244967 464.15320683 894.67007601 464.203125 884.3046875 C464.21018463 883.32220032 464.21724426 882.33971313 464.22451782 881.32745361 C464.55672496 851.52386879 464.55672496 851.52386879 461 822 C460.80664062 820.97503418 460.61328125 819.95006836 460.4140625 818.89404297 C450.78902595 769.58801083 428.10316808 723.56357981 394.25390625 686.4765625 C392.7257804 684.79747795 391.21314142 683.10419177 389.71484375 681.3984375 C385.72383745 676.86662588 381.69232968 672.65399692 377.07421875 668.76171875 C374.78358609 666.81619082 372.58480104 664.78676605 370.375 662.75 C364.1749533 657.16428719 357.62477328 652.06710704 351 647 C350.36787598 646.5162793 349.73575195 646.03255859 349.08447266 645.53417969 C319.79373012 623.19565719 288.95515695 602.79626635 257.13671875 584.25 C255.01346637 583.00787795 252.89645047 581.75577765 250.78125 580.5 C242.964405 575.86353357 235.09720662 571.34076922 227.13720703 566.9543457 C222.9500647 564.64541036 218.77960172 562.31144029 214.62890625 559.9375 C203.53494217 553.5972673 192.34832786 547.51560037 180.98828125 541.66479492 C174.19056117 538.15826188 167.46861118 534.54813489 160.80200195 530.79907227 C155.70626749 527.93604923 150.57393811 525.14909557 145.4230957 522.38647461 C133.03744248 515.73681233 120.85173975 508.7930933 108.7578125 501.62744141 C106.28425368 500.1677439 103.80101024 498.72696209 101.3125 497.29296875 C78.36195111 483.94767697 56.10091907 468.8933701 34.91796875 452.90234375 C31.05045229 449.99667681 27.05196144 447.32728258 23 444.6875 C14.56281582 439.17015034 6.76844661 433.05305627 -0.22875977 425.77099609 C-1.9472799 424.05271283 -3.72638044 422.48287414 -5.578125 420.91015625 C-10.63088864 416.51775954 -15.34089533 411.80545329 -20.0625 407.0625 C-21.35124023 405.77956055 -21.35124023 405.77956055 -22.66601562 404.47070312 C-27.08227647 400.04769475 -31.35207589 395.56196908 -35.42456055 390.82055664 C-37.83222297 388.03829433 -40.35824976 385.37067845 -42.875 382.6875 C-47.35814389 377.86820767 -51.61724224 372.92807354 -55.734375 367.7890625 C-57.7526927 365.30444382 -59.8292105 362.88312218 -61.93164062 360.46972656 C-92.37123474 325.31565499 -112.39965137 278.94858082 -119 233 C-119.18175781 231.74058594 -119.36351562 230.48117187 -119.55078125 229.18359375 C-125.68660245 171.10804607 -106.99606985 114.52243995 -71 69 C-70.36964844 68.18917969 -69.73929687 67.37835938 -69.08984375 66.54296875 C-67.09072803 64.00199825 -65.0531192 61.49753319 -63 59 C-62.18660156 57.9996875 -61.37320313 56.999375 -60.53515625 55.96875 C-53.44110147 47.39357507 -45.70528093 39.54744083 -37.76660156 31.75244141 C-36.93483398 30.93437012 -36.10306641 30.11629883 -35.24609375 29.2734375 C-34.50029053 28.54560059 -33.7544873 27.81776367 -32.98608398 27.06787109 C-30.97262942 25.05844292 -30.97262942 25.05844292 -29.38696289 22.82836914 C-27.60212968 20.47550592 -25.54714933 19.46383429 -23 18 C-21.63668713 16.84704205 -20.30384304 15.65730628 -19 14.4375 C-15.13503942 10.93161515 -11.13289331 7.6797164 -7 4.5 C-6.42378906 4.05454834 -5.84757812 3.60909668 -5.25390625 3.15014648 C-1.12872915 0 -1.12872915 0 0 0 Z " fill="#FD0018" transform="translate(493,248)"/>
<path d="M0 0 C0.79334747 -0.00376648 1.58669495 -0.00753296 2.40408325 -0.01141357 C18.74133033 -0.05074324 34.57797118 1.67756947 50.625 4.75 C51.73939453 4.95431641 52.85378906 5.15863281 54.00195312 5.36914062 C61.00816166 6.68511075 67.83868448 8.34180857 74.6875 10.3125 C75.99196767 10.67007377 77.29663432 11.026923 78.6015625 11.3828125 C155.833944 33.3330683 225.32569145 77.98421546 287.01171875 128.32421875 C289.90321843 130.68131585 292.81945964 133.00403123 295.75 135.3125 C305.26166633 142.89937719 314.36011146 151.03619852 323.3671875 159.2109375 C324.94734515 160.64212406 326.53628449 162.06366071 328.1328125 163.4765625 C333.75549215 168.46470777 339.08842064 173.65502457 344.33984375 179.02734375 C346.66378559 181.42876371 346.66378559 181.42876371 349.6875 183.3125 C349.98046875 185.4765625 349.98046875 185.4765625 349.875 187.9375 C349.84792969 188.75476563 349.82085938 189.57203125 349.79296875 190.4140625 C349.75816406 191.04054688 349.72335937 191.66703125 349.6875 192.3125 C345.98542989 190.97861347 342.67399863 189.21527143 339.27490234 187.24291992 C310.29423286 170.48836753 278.46304029 158.18038824 246.875 147.3125 C245.71463226 146.91091675 245.71463226 146.91091675 244.53082275 146.5012207 C229.34961836 141.27087484 213.92145963 136.98172364 198.1875 133.75 C197.20249512 133.54656982 196.21749023 133.34313965 195.20263672 133.13354492 C183.11186882 130.70610969 170.9163093 128.8877592 158.6875 127.3125 C158.01554596 127.22389709 157.34359192 127.13529419 156.65127563 127.04400635 C145.27430008 125.56589091 134.09266566 124.98226962 122.625 125.0625 C121.82689911 125.06560181 121.02879822 125.06870361 120.20651245 125.07189941 C58.79162414 125.34981211 1.04996567 142.61380607 -44.3125 185.3125 C-44.98667969 185.92222656 -45.66085937 186.53195312 -46.35546875 187.16015625 C-52.69067425 193.11600812 -57.47782824 200.13490464 -62.3125 207.3125 C-62.89257812 208.158125 -63.47265625 209.00375 -64.0703125 209.875 C-78.65197095 232.47275341 -80.65388314 261.42291913 -75.2734375 287.24609375 C-66.10274579 327.1716928 -42.42671806 363.77376184 -15.8359375 394.38671875 C-13.36568301 397.25083734 -10.99052228 400.17415224 -8.625 403.125 C-5.35144793 407.15129399 -1.90435443 410.83334599 1.81640625 414.4453125 C3.56490824 416.19016417 5.15830702 417.98764904 6.75 419.875 C14.41188705 428.77267528 22.96488749 437.20333911 31.93359375 444.77734375 C33.94583482 446.53861488 35.81121986 448.40729839 37.6875 450.3125 C41.52314672 454.19257506 45.54086978 457.76987974 49.6875 461.3125 C50.76464468 462.24181468 51.84143909 463.17153544 52.91796875 464.1015625 C73.19421804 481.7538751 73.19421804 481.7538751 95.17578125 497.15625 C95.67464844 497.5378125 96.17351562 497.919375 96.6875 498.3125 C96.6875 498.9725 96.6875 499.6325 96.6875 500.3125 C93.44297712 498.7624235 90.42692052 496.96220696 87.375 495.0625 C83.15954719 492.44181774 78.92851426 489.85157005 74.66796875 487.3046875 C59.3423089 478.1172083 44.47716781 468.32809139 29.6875 458.3125 C28.14739258 457.27198486 28.14739258 457.27198486 26.57617188 456.21044922 C11.35111243 445.91741636 -3.67933565 435.43600632 -18.3125 424.3125 C-19.32699219 423.54421875 -20.34148437 422.7759375 -21.38671875 421.984375 C-29.55703703 415.75362797 -37.54224069 409.30960224 -45.4921875 402.80078125 C-47.08511865 401.49840621 -48.6827952 400.20183968 -50.28125 398.90625 C-62.4422814 389.03435392 -74.11850435 378.74560011 -85.51171875 368 C-87.74849619 365.9039309 -90.01155989 363.83786568 -92.27661133 361.77246094 C-101.80462527 353.06961637 -111.28382224 344.14078645 -119.625 334.27734375 C-121.70720655 331.8529227 -123.88752207 329.52899968 -126.0625 327.1875 C-131.30274519 321.43350528 -136.0987245 315.39802257 -140.83544922 309.2265625 C-142.35716914 307.25461471 -143.89778672 305.2985894 -145.44140625 303.34375 C-174.55350112 266.23949462 -198.87132141 221.44889358 -198.57324219 173.1887207 C-198.56245188 171.11575468 -198.5732515 169.04364439 -198.5859375 166.97070312 C-198.59442559 159.20514121 -198.03665556 151.89020269 -196.3125 144.3125 C-196.10149658 143.27887329 -196.10149658 143.27887329 -195.88623047 142.22436523 C-193.68920356 131.60450328 -190.05785966 122.03310671 -185.3125 112.3125 C-185.00296387 111.67425293 -184.69342773 111.03600586 -184.37451172 110.37841797 C-177.03424831 95.45029535 -167.21636918 82.79046158 -156.3125 70.3125 C-155.58933594 69.46558594 -154.86617187 68.61867188 -154.12109375 67.74609375 C-150.4645318 63.51707592 -146.68200268 59.70306187 -142.40625 56.1015625 C-140.9790919 54.88208785 -139.58378521 53.62457148 -138.21875 52.3359375 C-100.57024332 16.87929594 -51.04720968 0.13329717 0 0 Z " fill="#000000" transform="translate(718.3125,149.6875)"/>
<path d="M0 0 C3.7101635 1.36033785 6.83930239 3.053908 10.140625 5.21875 C14.7052984 8.17433786 19.31618635 11.02712352 23.97558594 13.83032227 C42.61507045 25.04780155 60.77357802 36.9805275 78.65087891 49.37304688 C81.05895646 51.04083204 83.4728203 52.70002915 85.88671875 54.359375 C97.41383719 62.31906073 108.60751023 70.65991807 119.69384766 79.22119141 C121.73229414 80.79350996 123.77618954 82.35816771 125.82421875 83.91796875 C136.59942215 92.13288104 146.9964975 100.77916384 157.30859375 109.56298828 C158.99292607 110.99399002 160.6834628 112.41737035 162.375 113.83984375 C176.6060776 125.85176905 189.88399996 138.79302724 203.0625 151.9375 C203.65130951 152.52363068 204.24011902 153.10976135 204.84677124 153.71365356 C211.1199211 159.96513904 217.28224294 166.22884543 223 173 C223.94873204 174.08360002 224.8992058 175.165678 225.8515625 176.24609375 C255.49828332 210.23599841 281.53367731 249.5268557 292.25 293.8125 C292.41338867 294.48168457 292.57677734 295.15086914 292.74511719 295.84033203 C300.95594978 331.5460742 293.81153116 369.87468325 275.21972656 401.05615234 C271.87576071 406.38534692 268.14732709 411.41630597 264.27294922 416.36865234 C263.16414261 417.78964309 262.08163423 419.2310774 261.00390625 420.67578125 C249.49715824 435.5627812 235.27252493 449.04080635 220 460 C219.46358887 460.391875 218.92717773 460.78375 218.37451172 461.1875 C171.80755885 495.14576968 114.38309705 506.18485334 57.81152344 497.46630859 C51.21639219 496.37246519 44.6921872 495.03009487 38.18359375 493.50732422 C36.03248444 493.00754726 33.87701641 492.53419564 31.71875 492.06640625 C20.93374959 489.68869915 10.45631527 486.54345037 0 483 C-1.27786377 482.5671167 -1.27786377 482.5671167 -2.58154297 482.12548828 C-37.02950912 470.31493953 -69.9390272 453.93389274 -101 435 C-101.98661621 434.40219727 -102.97323242 433.80439453 -103.98974609 433.18847656 C-119.06658631 424.02397941 -133.63193862 414.2350362 -148 404 C-148.83321777 403.40912598 -149.66643555 402.81825195 -150.52490234 402.20947266 C-165.56161304 391.53386234 -179.92362389 380.13163898 -194.20019531 368.46777344 C-195.77310294 367.18503868 -197.35098284 365.90840587 -198.9296875 364.6328125 C-211.0033902 354.8520385 -222.59595529 344.54797701 -234 334 C-235.58148723 332.55646182 -237.165569 331.1158185 -238.75024414 329.67578125 C-240.26948875 328.2892539 -241.77817214 326.89201614 -243.28515625 325.4921875 C-244.92851384 323.98360887 -246.59699014 322.50099301 -248.30859375 321.0703125 C-252.80253691 317.14602411 -252.80253691 317.14602411 -253.41796875 313.57421875 C-253.43540152 311.33236394 -253.31675796 309.21730569 -253 307 C-252.13761719 307.46148438 -251.27523438 307.92296875 -250.38671875 308.3984375 C-247.75631879 309.80535296 -245.12276489 311.20621733 -242.48828125 312.60546875 C-239.57935166 314.15204437 -236.68232879 315.71798458 -233.79296875 317.30078125 C-211.40403475 329.46298245 -187.89164619 339.22246199 -164 348 C-163.1754834 348.30518555 -162.3509668 348.61037109 -161.50146484 348.92480469 C-151.13138966 352.74732657 -140.65313116 356.06060187 -130 359 C-128.71246826 359.35578125 -128.71246826 359.35578125 -127.39892578 359.71875 C-97.28600473 367.96504109 -66.32103408 374.40950132 -35 375 C-34.00419922 375.02578125 -33.00839844 375.0515625 -31.98242188 375.078125 C-7.31259345 375.66030384 16.95502859 373.66605366 41 368 C42.27230469 367.70351562 43.54460937 367.40703125 44.85546875 367.1015625 C48.60188779 366.16194615 52.30687297 365.12790096 56 364 C56.72026367 363.78037598 57.44052734 363.56075195 58.18261719 363.33447266 C80.03235248 356.5116272 100.5329528 346.53349448 119 333 C119.61294922 332.55382324 120.22589844 332.10764648 120.85742188 331.64794922 C128.2910705 326.19484279 135.2813182 320.31221351 142 314 C142.60070312 313.46375 143.20140625 312.9275 143.8203125 312.375 C161.00182399 296.39219862 173.13245027 270.40490957 174.12109375 247.15185547 C175.03399426 217.35934737 167.82279379 191.37761328 154 165 C153.67563965 164.38012207 153.3512793 163.76024414 153.01708984 163.12158203 C140.95043578 140.41927535 125.10991138 119.12466543 108 100 C106.7625 98.61361328 106.7625 98.61361328 105.5 97.19921875 C104.08180085 95.62051395 102.65955458 94.0454192 101.23046875 92.4765625 C99.9784131 91.08636411 98.73279944 89.69006521 97.51116943 88.27305603 C93.37954475 83.48306805 89.07670616 78.92969901 84.59765625 74.46484375 C83.57556313 73.44131554 83.57556313 73.44131554 82.53282166 72.39710999 C81.10294259 70.96655563 79.67182089 69.53724233 78.23950195 68.10913086 C76.06802289 65.94300926 73.90193675 63.77159826 71.73632812 61.59960938 C70.33625798 60.20020013 68.93587762 58.80110116 67.53515625 57.40234375 C66.89844498 56.76360825 66.2617337 56.12487274 65.60572815 55.46678162 C61.77480648 51.65541678 57.82994005 48.0282352 53.73724365 44.49913025 C51.5159046 42.58225661 49.35293869 40.60461295 47.1875 38.625 C42.9523509 34.80694891 38.60992819 31.16130861 34.171875 27.58203125 C31.75892902 25.63185273 29.38361523 23.64122136 27.015625 21.63671875 C19.66735498 15.44751094 12.38335617 9.58868901 4.11401367 4.6640625 C2.71408884 3.82182793 1.35206872 2.91709257 0 2 C0 1.34 0 0.68 0 0 Z " fill="#000000" transform="translate(629,807)"/>
<path d="M0 0 C0.66 0 1.32 0 2 0 C1.59051687 6.70259223 1.10597541 13.36234802 0.25575256 20.02256775 C-1.13282529 31.1604213 -1.43581484 42.22237117 -1.4375 53.4375 C-1.43989685 54.40491119 -1.4422937 55.37232239 -1.44476318 56.36904907 C-1.44520436 77.87960806 0.85885914 98.99322702 5.75244141 119.96020508 C6.0283941 122.23395727 5.68692365 123.83065475 5 126 C3.06729418 124.06729418 3.37336945 120.61358612 3 118 C2.67 117.67 2.34 117.34 2 117 C1.7154703 115.46730105 1.48582066 113.92431043 1.28125 112.37890625 C1.08982422 110.97608398 1.08982422 110.97608398 0.89453125 109.54492188 C0.76433594 108.56072266 0.63414062 107.57652344 0.5 106.5625 C0.24280154 104.62587196 -0.01746683 102.6896484 -0.28125 100.75390625 C-0.39533203 99.89095947 -0.50941406 99.0280127 -0.62695312 98.13891602 C-0.90219996 95.956528 -0.90219996 95.956528 -2 94 C-2.2064743 91.71157647 -2.36647108 89.41883607 -2.5 87.125 C-2.70216007 82.54823947 -2.70216007 82.54823947 -3.50949097 78.06167603 C-4.03643427 75.84686183 -4.12697816 73.90515395 -4.12939453 71.63037109 C-4.13254669 70.77623627 -4.13569885 69.92210144 -4.13894653 69.04208374 C-4.1369223 68.12843048 -4.13489807 67.21477722 -4.1328125 66.2734375 C-4.13376923 65.32941071 -4.13472595 64.38538391 -4.13571167 63.41275024 C-4.13639131 61.42067396 -4.13455207 59.42859545 -4.13037109 57.43652344 C-4.12500791 54.37950708 -4.1303295 51.32263686 -4.13671875 48.265625 C-4.13605816 46.33072884 -4.13477741 44.39583277 -4.1328125 42.4609375 C-4.13483673 41.54323578 -4.13686096 40.62553406 -4.13894653 39.68002319 C-4.13579437 38.83219269 -4.13264221 37.98436218 -4.12939453 37.11083984 C-4.12859894 36.36345551 -4.12780334 35.61607117 -4.12698364 34.84603882 C-4 33 -4 33 -3 31 C-2.86152592 29.63792182 -2.77495667 28.2702885 -2.71875 26.90234375 C-2.68136719 26.10119141 -2.64398438 25.30003906 -2.60546875 24.47460938 C-2.53499415 22.77930361 -2.46468239 21.08399106 -2.39453125 19.38867188 C-2.10065115 13.10065115 -2.10065115 13.10065115 -1 12 C-0.76572222 9.98405418 -0.58663876 7.961526 -0.4375 5.9375 C-0.31181641 4.28041016 -0.31181641 4.28041016 -0.18359375 2.58984375 C-0.12300781 1.73519531 -0.06242187 0.88054687 0 0 Z " fill="#DC1124" transform="translate(485,276)"/>
<path d="M0 0 C0.33 0 0.66 0 1 0 C1.14099121 1.00788574 1.28198242 2.01577148 1.42724609 3.05419922 C1.95734625 6.83798218 2.49130938 10.62121206 3.02636719 14.40429688 C3.2562422 16.03338309 3.48510661 17.66261228 3.71289062 19.29199219 C4.04283263 21.65078808 4.37582015 24.00912152 4.7109375 26.3671875 C4.81895691 27.12892273 4.92697632 27.89065796 5.03826904 28.67547607 C5.74127302 33.52155567 6.60148311 38.29601691 7.75244141 43.05908203 C8.03658384 45.286826 7.66951582 46.87221554 7 49 C5.06729418 47.06729418 5.37336945 43.61358612 5 41 C4.67 40.67 4.34 40.34 4 40 C3.7154703 38.46730105 3.48582066 36.92431043 3.28125 35.37890625 C3.15363281 34.44369141 3.02601563 33.50847656 2.89453125 32.54492188 C2.76433594 31.56072266 2.63414062 30.57652344 2.5 29.5625 C2.24280154 27.62587196 1.98253317 25.6896484 1.71875 23.75390625 C1.54762695 22.45948608 1.54762695 22.45948608 1.37304688 21.13891602 C1.09780004 18.956528 1.09780004 18.956528 0 17 C-0.07194869 14.11629667 -0.09291708 11.25760336 -0.0625 8.375 C-0.05798828 7.57320313 -0.05347656 6.77140625 -0.04882812 5.9453125 C-0.03703168 3.96350994 -0.01909605 1.98174567 0 0 Z " fill="#DF2637" transform="translate(483,353)"/>
<path d="M0 0 C0.33 0 0.66 0 1 0 C1.96971559 5.69641409 2.16081633 11.21995535 2.16796875 16.9921875 C2.17129715 17.93756378 2.17462555 18.88294006 2.17805481 19.85696411 C2.18309733 21.848811 2.18546397 23.84066627 2.18530273 25.83251953 C2.18748811 28.85854177 2.20566947 31.88419841 2.22460938 34.91015625 C2.22754419 36.85416543 2.2295284 38.79817633 2.23046875 40.7421875 C2.23765427 41.63622284 2.24483978 42.53025818 2.25224304 43.4513855 C2.23143187 49.25269665 1.43652371 54.37560224 0 60 C-0.33 60 -0.66 60 -1 60 C-1.02725341 58.2709226 -1.04650987 56.54171824 -1.0625 54.8125 C-1.07410156 53.84957031 -1.08570313 52.88664063 -1.09765625 51.89453125 C-1 49 -1 49 -0.5 46.95117188 C0.23761736 42.59750066 0.12194314 38.29416174 0.09765625 33.88671875 C0.0962413 32.91716751 0.09482635 31.94761627 0.09336853 30.94868469 C0.08778513 27.86159133 0.07523564 24.77457133 0.0625 21.6875 C0.05748286 19.59049584 0.05292032 17.49349054 0.04882812 15.39648438 C0.03782112 10.26429479 0.02056788 5.13215982 0 0 Z " fill="#DF2537" transform="translate(1066,969)"/>
<path d="M0 0 C-0.75 1.9375 -0.75 1.9375 -2 4 C-4.125 4.75 -4.125 4.75 -6 5 C-6 5.66 -6 6.32 -6 7 C-11.47619048 12 -11.47619048 12 -14 12 C-14.25523437 12.58265625 -14.51046875 13.1653125 -14.7734375 13.765625 C-16.11741087 16.21388223 -17.61810296 17.81743248 -19.625 19.75 C-20.57246094 20.67039062 -20.57246094 20.67039062 -21.5390625 21.609375 C-22.02117187 22.06828125 -22.50328125 22.5271875 -23 23 C-23.99 22.67 -24.98 22.34 -26 22 C-25.52949219 21.54109375 -25.05898438 21.0821875 -24.57421875 20.609375 C-20.74795018 16.87830632 -20.74795018 16.87830632 -17.375 12.75 C-16 11 -16 11 -13.70703125 9.65234375 C-10.03780424 7.4126857 -7.12142683 4.56704519 -3.98828125 1.64453125 C-2 0 -2 0 0 0 Z " fill="#E71226" transform="translate(481,258)"/>
<path d="M0 0 C0.66 0 1.32 0 2 0 C1.34546042 10.71377936 0.24471156 21.34140202 -1 32 C-1.33 32 -1.66 32 -2 32 C-2.02888514 28.85418577 -2.04675923 25.70840531 -2.0625 22.5625 C-2.07087891 21.66466797 -2.07925781 20.76683594 -2.08789062 19.84179688 C-2.09111328 18.98779297 -2.09433594 18.13378906 -2.09765625 17.25390625 C-2.10551147 16.06776733 -2.10551147 16.06776733 -2.11352539 14.85766602 C-2 13 -2 13 -1 12 C-0.76572222 9.98405418 -0.58663876 7.961526 -0.4375 5.9375 C-0.35371094 4.83277344 -0.26992188 3.72804688 -0.18359375 2.58984375 C-0.12300781 1.73519531 -0.06242187 0.88054687 0 0 Z " fill="#DF1B2D" transform="translate(485,276)"/>
<path d="M0 0 C-0.75 1.9375 -0.75 1.9375 -2 4 C-4.125 4.75 -4.125 4.75 -6 5 C-6 5.66 -6 6.32 -6 7 C-8.75 9.6875 -8.75 9.6875 -12 12 C-14.375 11.8125 -14.375 11.8125 -16 11 C-15.27167969 10.59136719 -14.54335938 10.18273437 -13.79296875 9.76171875 C-10.122187 7.44630257 -7.1527625 4.59627427 -3.98828125 1.64453125 C-2 0 -2 0 0 0 Z " fill="#E12335" transform="translate(481,258)"/>
<path d="M0 0 C1.41875765 0.76697796 2.83491452 1.53876778 4.25 2.3125 C5.03890625 2.74175781 5.8278125 3.17101562 6.640625 3.61328125 C8.91454767 4.94977554 10.99505799 6.28476292 13 8 C13 8.66 13 9.32 13 10 C9.93124691 8.5360077 7.09565257 6.85990364 4.25 5 C3.45078125 4.484375 2.6515625 3.96875 1.828125 3.4375 C0.92320312 2.7259375 0.92320312 2.7259375 0 2 C0 1.34 0 0.68 0 0 Z " fill="#303030" transform="translate(802,640)"/>
<path d="M0 0 C4.06498881 1.37184347 6.67396561 3.22068459 9.8125 6.125 C10.99779297 7.21167969 10.99779297 7.21167969 12.20703125 8.3203125 C12.79871094 8.87460937 13.39039063 9.42890625 14 10 C9.83878671 10 8.46553396 8.20445395 5.3125 5.5625 C4.31863281 4.73878906 3.32476562 3.91507813 2.30078125 3.06640625 C1.54152344 2.38449219 0.78226562 1.70257812 0 1 C0 0.67 0 0.34 0 0 Z " fill="#E0293A" transform="translate(498,678)"/>
<path d="M0 0 C1.53760842 3.07521683 0.36599236 5.34675118 -0.4375 8.625 C-0.72496094 9.81351562 -1.01242187 11.00203125 -1.30859375 12.2265625 C-1.53675781 13.14179688 -1.76492188 14.05703125 -2 15 C-2.33 15 -2.66 15 -3 15 C-3 11.7 -3 8.4 -3 5 C-2.34 5 -1.68 5 -1 5 C-0.67 3.35 -0.34 1.7 0 0 Z " fill="#E0283A" transform="translate(490,261)"/>
<path d="M0 0 C0.66 0.66 1.32 1.32 2 2 C4.58354218 2.16687448 4.58354218 2.16687448 7 2 C2.25 6.875 2.25 6.875 0 8 C0 5.36 0 2.72 0 0 Z " fill="#E2293B" transform="translate(948,1195)"/>
<path d="M0 0 C0.33 0 0.66 0 1 0 C1 2.97 1 5.94 1 9 C0.34 9 -0.32 9 -1 9 C-1.33 9.66 -1.66 10.32 -2 11 C-1.125 3.375 -1.125 3.375 0 0 Z " fill="#E32B3C" transform="translate(378,406)"/>
<path d="M0 0 C0.75 1.75 0.75 1.75 1 4 C-0.9375 6.25 -0.9375 6.25 -3 8 C-3.33 7.34 -3.66 6.68 -4 6 C-2.68 4.02 -1.36 2.04 0 0 Z " fill="#E31E30" transform="translate(410,334)"/>
</svg>
