<svg
   version="1.1"
   id="svg1"
   width="512"
   height="512"
   viewBox="0 0 512 512"
   sodipodi:docname="favicon.svg"
   inkscape:version="1.4.3"
   xmlns:inkscape="http://www.inkscape.org/namespaces/inkscape"
   xmlns:sodipodi="http://sodipodi.sourceforge.net/DTD/sodipodi-0.dtd"
   xmlns="http://www.w3.org/2000/svg">
  <defs
     id="defs1" />
  <sodipodi:namedview
     id="namedview1"
     pagecolor="#ffffff"
     bordercolor="#000000"
     borderopacity="0.25"
     inkscape:showpageshadow="2"
     inkscape:pageopacity="0.0"
     inkscape:pagecheckerboard="0"
     inkscape:deskcolor="#d1d1d1"
     showgrid="false"
     inkscape:zoom="1"
     inkscape:cx="256"
     inkscape:cy="256"
     inkscape:window-width="1440"
     inkscape:window-height="811"
     inkscape:window-x="-9"
     inkscape:window-y="-9"
     inkscape:window-maximized="1"
     inkscape:current-layer="g1" />
  <g
     inkscape:groupmode="layer"
     inkscape:label="Image"
     id="g1"
     transform="translate(0,0)">
    <g
       id="g2"
       transform="matrix(0.35555556,0,0,0.35555556,2.6133909,5.2268596)">
      <path
         style="display:inline;fill:#fe0018"
         d="m 922,1135.8867 c 0,-0.7827 1.12087,-6.365 2.49082,-12.4049 4.86319,-21.4413 5.93727,-32.1776 5.95067,-59.4818 0.0134,-27.3045 -1.1017,-38.3185 -5.93689,-58.639 C 918.90007,981.80713 903.19369,945.41131 890.68846,927 873.45526,901.62776 854.5639,882.66308 822.5,858.54686 782.2762,828.29335 755.6656,811.94264 675.64224,768.3111 600.87833,727.54719 587.7454,719.40143 529.63538,677.74966 521.31205,671.78371 485.54615,636.00763 471.90215,620 c -28.48166,-33.41572 -37.84811,-49.41522 -49.46807,-84.5 -9.54961,-28.83365 -10.93874,-37.10819 -10.91218,-65 0.0192,-20.15753 0.30384,-24.29765 2.30315,-33.5 7.06089,-32.49959 21.47331,-62.28029 43.79763,-90.5 6.81006,-8.60845 33.81999,-37.50111 36.51102,-39.05603 0.89854,-0.51918 6.29854,-4.86137 12,-9.6493 6.79818,-5.70893 10.4763,-8.21109 10.68588,-7.26942 0.17578,0.78975 -0.60106,5.15715 -1.72629,9.70533 -9.14456,36.96216 -9.37366,83.44173 -0.59352,120.40846 5.58723,23.52371 21.30112,59.94168 33.81177,78.36096 17.13401,25.22619 36.63055,44.80815 68.18846,68.48721 40.47835,30.37238 66.97331,46.64589 146.85776,90.20169 74.76391,40.76391 87.89684,48.90967 146.00686,90.56144 8.32333,5.96595 44.08923,41.74203 57.73323,57.74966 27.29661,32.02537 37.37645,48.76358 47.89355,79.53049 9.9799,29.19514 12.9908,45.2284 13.0793,69.64888 0.1068,29.48352 -5.4708,52.69163 -19.544,81.32063 -12.08079,24.576 -25.66099,43.2786 -48.98842,67.4666 -7.17105,7.4355 -13.78112,13.9724 -14.68904,14.5263 -1.33879,0.8168 -11.08631,8.8231 -21.09924,17.3302 -1.48381,1.2607 -1.75,1.2704 -1.75,0.064 z"
         id="path3"
         sodipodi:insensitive="true" />
      <path
         style="display:inline;fill:#000000"
         d="m 701.5,1241.389 c -42.96643,-6.204 -72.63408,-15.5493 -114,-35.9103 -53.06751,-26.1207 -109.65844,-66.3821 -162.8149,-115.8339 -10.56079,-9.8248 -11.74632,-11.2648 -11.16872,-13.5661 0.3554,-1.416 0.73565,-2.6641 0.845,-2.7734 0.10935,-0.1094 9.86027,4.6466 21.66872,10.5688 49.81841,24.9851 101.09608,41.1123 148.4699,46.6949 18.0004,2.1213 50.8894,2.1538 66.00452,0.065 39.3422,-5.4358 70.23909,-17.9582 99.74993,-40.4283 20.88377,-15.9012 33.94871,-33.6579 40.39321,-54.8986 2.35822,-7.7726 2.68279,-10.57 2.76227,-23.8075 0.13564,-22.58962 -3.35365,-36.4133 -15.39723,-61 C 763.83236,921.55118 744.83868,896.1744 713,863.63886 689.29413,839.41413 659.29714,813.0714 644.94751,803.87658 c -3.7566,-2.40712 -6.85658,-4.76897 -6.88885,-5.24855 -0.0323,-0.47959 0.95384,-0.15663 2.19134,0.71768 1.2375,0.87431 9,5.74499 17.25,10.82373 66.27997,40.80229 115.28044,78.36699 157.51396,120.75326 45.21765,45.38118 71.16787,85.8744 81.59366,127.3203 3.0679,12.1959 4.36701,37.531 2.52968,49.3336 -2.86349,18.3944 -11.61478,39.398 -23.28878,55.8944 -7.4205,10.4858 -25.13924,29.1789 -35.84852,37.8197 -23.59607,19.0387 -48.54852,31.017 -77.85095,37.372 -10.18178,2.2082 -14.54603,2.5663 -34.64905,2.8429 -12.65,0.1741 -24.35,0.1216 -26,-0.1166 z M 799,643.35513 c -1.925,-1.33906 -10.25,-6.55805 -18.5,-11.59775 C 744.26664,609.62342 697.94722,576.55019 668.4186,551.72842 616.1512,507.79244 579.41665,464.77768 559.19927,423.83677 551.337,407.91539 547.12314,396.08601 543.85055,380.74903 540.92228,367.0257 540.71004,343.49367 543.40185,331 c 6.07466,-28.19462 20.23553,-52.20784 45.02982,-76.35908 30.61829,-29.8242 66.03883,-46.79545 107.97144,-51.73298 13.77947,-1.62252 42.89193,-0.63186 58.21698,1.98105 66.68685,11.37007 139.21628,48.15414 215.87991,109.48576 15.82673,12.66153 35.1052,29.41221 46.8595,40.71518 9.7901,9.41429 10.7929,10.70826 10.4831,13.52739 l -0.3426,3.11733 -9.5,-5.32077 c -5.225,-2.92643 -16.4585,-8.53295 -24.9633,-12.45895 C 949.65148,333.9274 909.08751,321.28986 867.5,314.8445 c -16.90604,-2.62016 -55.6032,-3.63619 -71.72425,-1.8832 -40.33009,4.38546 -75.26135,18.1774 -105.36395,41.60095 -66.1528,51.47507 -55.42152,126.67651 31.24251,218.93775 24.71026,26.30617 65.44143,62.05162 80.33736,70.50362 0.82042,0.4655 1.27042,1.05783 1,1.31627 -0.27042,0.25845 -2.06667,-0.62569 -3.99167,-1.96476 z"
         id="path2"
         sodipodi:insensitive="true" />
    </g>
  </g>
</svg>